G75*
G70*
%OFA0B0*%
%FSLAX24Y24*%
%IPPOS*%
%LPD*%
%AMOC8*
5,1,8,0,0,1.08239X$1,22.5*
%
%ADD10C,0.0060*%
%ADD11C,0.0030*%
%ADD12C,0.0080*%
D10*
X001513Y001139D02*
X001515Y001174D01*
X001521Y001209D01*
X001530Y001244D01*
X001544Y001276D01*
X001561Y001308D01*
X001581Y001337D01*
X001604Y001364D01*
X001630Y001388D01*
X001659Y001409D01*
X001690Y001426D01*
X001722Y001441D01*
X001756Y001451D01*
X001791Y001458D01*
X001826Y001461D01*
X001862Y001460D01*
X001897Y001455D01*
X001931Y001446D01*
X001964Y001434D01*
X001996Y001418D01*
X002026Y001398D01*
X002053Y001376D01*
X002078Y001350D01*
X002100Y001322D01*
X002118Y001292D01*
X002133Y001260D01*
X002145Y001227D01*
X002153Y001192D01*
X002157Y001157D01*
X002157Y001121D01*
X002153Y001086D01*
X002145Y001051D01*
X002133Y001018D01*
X002118Y000986D01*
X002100Y000956D01*
X002078Y000928D01*
X002053Y000902D01*
X002026Y000880D01*
X001996Y000860D01*
X001964Y000844D01*
X001931Y000832D01*
X001897Y000823D01*
X001862Y000818D01*
X001826Y000817D01*
X001791Y000820D01*
X001756Y000827D01*
X001722Y000837D01*
X001690Y000852D01*
X001659Y000869D01*
X001630Y000890D01*
X001604Y000914D01*
X001581Y000941D01*
X001561Y000970D01*
X001544Y001002D01*
X001530Y001034D01*
X001521Y001069D01*
X001515Y001104D01*
X001513Y001139D01*
X001374Y001929D02*
X001376Y001964D01*
X001382Y001999D01*
X001391Y002034D01*
X001405Y002066D01*
X001422Y002098D01*
X001442Y002127D01*
X001465Y002154D01*
X001491Y002178D01*
X001520Y002199D01*
X001551Y002216D01*
X001583Y002231D01*
X001617Y002241D01*
X001652Y002248D01*
X001687Y002251D01*
X001723Y002250D01*
X001758Y002245D01*
X001792Y002236D01*
X001825Y002224D01*
X001857Y002208D01*
X001887Y002188D01*
X001914Y002166D01*
X001939Y002140D01*
X001961Y002112D01*
X001979Y002082D01*
X001994Y002050D01*
X002006Y002017D01*
X002014Y001982D01*
X002018Y001947D01*
X002018Y001911D01*
X002014Y001876D01*
X002006Y001841D01*
X001994Y001808D01*
X001979Y001776D01*
X001961Y001746D01*
X001939Y001718D01*
X001914Y001692D01*
X001887Y001670D01*
X001857Y001650D01*
X001825Y001634D01*
X001792Y001622D01*
X001758Y001613D01*
X001723Y001608D01*
X001687Y001607D01*
X001652Y001610D01*
X001617Y001617D01*
X001583Y001627D01*
X001551Y001642D01*
X001520Y001659D01*
X001491Y001680D01*
X001465Y001704D01*
X001442Y001731D01*
X001422Y001760D01*
X001405Y001792D01*
X001391Y001824D01*
X001382Y001859D01*
X001376Y001894D01*
X001374Y001929D01*
X001775Y002624D02*
X001777Y002659D01*
X001783Y002694D01*
X001792Y002729D01*
X001806Y002761D01*
X001823Y002793D01*
X001843Y002822D01*
X001866Y002849D01*
X001892Y002873D01*
X001921Y002894D01*
X001952Y002911D01*
X001984Y002926D01*
X002018Y002936D01*
X002053Y002943D01*
X002088Y002946D01*
X002124Y002945D01*
X002159Y002940D01*
X002193Y002931D01*
X002226Y002919D01*
X002258Y002903D01*
X002288Y002883D01*
X002315Y002861D01*
X002340Y002835D01*
X002362Y002807D01*
X002380Y002777D01*
X002395Y002745D01*
X002407Y002712D01*
X002415Y002677D01*
X002419Y002642D01*
X002419Y002606D01*
X002415Y002571D01*
X002407Y002536D01*
X002395Y002503D01*
X002380Y002471D01*
X002362Y002441D01*
X002340Y002413D01*
X002315Y002387D01*
X002288Y002365D01*
X002258Y002345D01*
X002226Y002329D01*
X002193Y002317D01*
X002159Y002308D01*
X002124Y002303D01*
X002088Y002302D01*
X002053Y002305D01*
X002018Y002312D01*
X001984Y002322D01*
X001952Y002337D01*
X001921Y002354D01*
X001892Y002375D01*
X001866Y002399D01*
X001843Y002426D01*
X001823Y002455D01*
X001806Y002487D01*
X001792Y002519D01*
X001783Y002554D01*
X001777Y002589D01*
X001775Y002624D01*
X002529Y002899D02*
X002531Y002934D01*
X002537Y002969D01*
X002546Y003004D01*
X002560Y003036D01*
X002577Y003068D01*
X002597Y003097D01*
X002620Y003124D01*
X002646Y003148D01*
X002675Y003169D01*
X002706Y003186D01*
X002738Y003201D01*
X002772Y003211D01*
X002807Y003218D01*
X002842Y003221D01*
X002878Y003220D01*
X002913Y003215D01*
X002947Y003206D01*
X002980Y003194D01*
X003012Y003178D01*
X003042Y003158D01*
X003069Y003136D01*
X003094Y003110D01*
X003116Y003082D01*
X003134Y003052D01*
X003149Y003020D01*
X003161Y002987D01*
X003169Y002952D01*
X003173Y002917D01*
X003173Y002881D01*
X003169Y002846D01*
X003161Y002811D01*
X003149Y002778D01*
X003134Y002746D01*
X003116Y002716D01*
X003094Y002688D01*
X003069Y002662D01*
X003042Y002640D01*
X003012Y002620D01*
X002980Y002604D01*
X002947Y002592D01*
X002913Y002583D01*
X002878Y002578D01*
X002842Y002577D01*
X002807Y002580D01*
X002772Y002587D01*
X002738Y002597D01*
X002706Y002612D01*
X002675Y002629D01*
X002646Y002650D01*
X002620Y002674D01*
X002597Y002701D01*
X002577Y002730D01*
X002560Y002762D01*
X002546Y002794D01*
X002537Y002829D01*
X002531Y002864D01*
X002529Y002899D01*
X003283Y002624D02*
X003285Y002659D01*
X003291Y002694D01*
X003300Y002729D01*
X003314Y002761D01*
X003331Y002793D01*
X003351Y002822D01*
X003374Y002849D01*
X003400Y002873D01*
X003429Y002894D01*
X003460Y002911D01*
X003492Y002926D01*
X003526Y002936D01*
X003561Y002943D01*
X003596Y002946D01*
X003632Y002945D01*
X003667Y002940D01*
X003701Y002931D01*
X003734Y002919D01*
X003766Y002903D01*
X003796Y002883D01*
X003823Y002861D01*
X003848Y002835D01*
X003870Y002807D01*
X003888Y002777D01*
X003903Y002745D01*
X003915Y002712D01*
X003923Y002677D01*
X003927Y002642D01*
X003927Y002606D01*
X003923Y002571D01*
X003915Y002536D01*
X003903Y002503D01*
X003888Y002471D01*
X003870Y002441D01*
X003848Y002413D01*
X003823Y002387D01*
X003796Y002365D01*
X003766Y002345D01*
X003734Y002329D01*
X003701Y002317D01*
X003667Y002308D01*
X003632Y002303D01*
X003596Y002302D01*
X003561Y002305D01*
X003526Y002312D01*
X003492Y002322D01*
X003460Y002337D01*
X003429Y002354D01*
X003400Y002375D01*
X003374Y002399D01*
X003351Y002426D01*
X003331Y002455D01*
X003314Y002487D01*
X003300Y002519D01*
X003291Y002554D01*
X003285Y002589D01*
X003283Y002624D01*
X003684Y001929D02*
X003686Y001964D01*
X003692Y001999D01*
X003701Y002034D01*
X003715Y002066D01*
X003732Y002098D01*
X003752Y002127D01*
X003775Y002154D01*
X003801Y002178D01*
X003830Y002199D01*
X003861Y002216D01*
X003893Y002231D01*
X003927Y002241D01*
X003962Y002248D01*
X003997Y002251D01*
X004033Y002250D01*
X004068Y002245D01*
X004102Y002236D01*
X004135Y002224D01*
X004167Y002208D01*
X004197Y002188D01*
X004224Y002166D01*
X004249Y002140D01*
X004271Y002112D01*
X004289Y002082D01*
X004304Y002050D01*
X004316Y002017D01*
X004324Y001982D01*
X004328Y001947D01*
X004328Y001911D01*
X004324Y001876D01*
X004316Y001841D01*
X004304Y001808D01*
X004289Y001776D01*
X004271Y001746D01*
X004249Y001718D01*
X004224Y001692D01*
X004197Y001670D01*
X004167Y001650D01*
X004135Y001634D01*
X004102Y001622D01*
X004068Y001613D01*
X004033Y001608D01*
X003997Y001607D01*
X003962Y001610D01*
X003927Y001617D01*
X003893Y001627D01*
X003861Y001642D01*
X003830Y001659D01*
X003801Y001680D01*
X003775Y001704D01*
X003752Y001731D01*
X003732Y001760D01*
X003715Y001792D01*
X003701Y001824D01*
X003692Y001859D01*
X003686Y001894D01*
X003684Y001929D01*
X003545Y001139D02*
X003547Y001174D01*
X003553Y001209D01*
X003562Y001244D01*
X003576Y001276D01*
X003593Y001308D01*
X003613Y001337D01*
X003636Y001364D01*
X003662Y001388D01*
X003691Y001409D01*
X003722Y001426D01*
X003754Y001441D01*
X003788Y001451D01*
X003823Y001458D01*
X003858Y001461D01*
X003894Y001460D01*
X003929Y001455D01*
X003963Y001446D01*
X003996Y001434D01*
X004028Y001418D01*
X004058Y001398D01*
X004085Y001376D01*
X004110Y001350D01*
X004132Y001322D01*
X004150Y001292D01*
X004165Y001260D01*
X004177Y001227D01*
X004185Y001192D01*
X004189Y001157D01*
X004189Y001121D01*
X004185Y001086D01*
X004177Y001051D01*
X004165Y001018D01*
X004150Y000986D01*
X004132Y000956D01*
X004110Y000928D01*
X004085Y000902D01*
X004058Y000880D01*
X004028Y000860D01*
X003996Y000844D01*
X003963Y000832D01*
X003929Y000823D01*
X003894Y000818D01*
X003858Y000817D01*
X003823Y000820D01*
X003788Y000827D01*
X003754Y000837D01*
X003722Y000852D01*
X003691Y000869D01*
X003662Y000890D01*
X003636Y000914D01*
X003613Y000941D01*
X003593Y000970D01*
X003576Y001002D01*
X003562Y001034D01*
X003553Y001069D01*
X003547Y001104D01*
X003545Y001139D01*
X002930Y000624D02*
X002932Y000659D01*
X002938Y000694D01*
X002947Y000729D01*
X002961Y000761D01*
X002978Y000793D01*
X002998Y000822D01*
X003021Y000849D01*
X003047Y000873D01*
X003076Y000894D01*
X003107Y000911D01*
X003139Y000926D01*
X003173Y000936D01*
X003208Y000943D01*
X003243Y000946D01*
X003279Y000945D01*
X003314Y000940D01*
X003348Y000931D01*
X003381Y000919D01*
X003413Y000903D01*
X003443Y000883D01*
X003470Y000861D01*
X003495Y000835D01*
X003517Y000807D01*
X003535Y000777D01*
X003550Y000745D01*
X003562Y000712D01*
X003570Y000677D01*
X003574Y000642D01*
X003574Y000606D01*
X003570Y000571D01*
X003562Y000536D01*
X003550Y000503D01*
X003535Y000471D01*
X003517Y000441D01*
X003495Y000413D01*
X003470Y000387D01*
X003443Y000365D01*
X003413Y000345D01*
X003381Y000329D01*
X003348Y000317D01*
X003314Y000308D01*
X003279Y000303D01*
X003243Y000302D01*
X003208Y000305D01*
X003173Y000312D01*
X003139Y000322D01*
X003107Y000337D01*
X003076Y000354D01*
X003047Y000375D01*
X003021Y000399D01*
X002998Y000426D01*
X002978Y000455D01*
X002961Y000487D01*
X002947Y000519D01*
X002938Y000554D01*
X002932Y000589D01*
X002930Y000624D01*
D11*
X002913Y000789D02*
X002913Y001153D01*
X002792Y001032D01*
X002472Y001112D02*
X002411Y001051D01*
X002290Y001051D01*
X002229Y001112D01*
X002229Y001172D01*
X002290Y001233D01*
X002411Y001233D01*
X002472Y001172D01*
X002472Y001112D01*
X002411Y001233D02*
X002472Y001294D01*
X002472Y001354D01*
X002411Y001415D01*
X002290Y001415D01*
X002229Y001354D01*
X002229Y001294D01*
X002290Y001233D01*
X002792Y000789D02*
X003034Y000789D01*
D12*
X000601Y000226D02*
X000351Y000476D01*
X000351Y000976D01*
X000601Y001226D01*
X000351Y001476D01*
X000351Y001976D01*
X000601Y002226D01*
X000351Y002476D01*
X000351Y002976D01*
X000601Y003226D01*
X001101Y003226D01*
X001351Y002976D01*
X001351Y002476D01*
X001101Y002226D01*
X001351Y001976D01*
X001351Y001476D01*
X001101Y001226D01*
X001351Y000976D01*
X001351Y000476D01*
X001101Y000226D01*
X000601Y000226D01*
X001351Y001726D02*
X001353Y001803D01*
X001359Y001880D01*
X001369Y001957D01*
X001383Y002033D01*
X001400Y002108D01*
X001422Y002182D01*
X001447Y002255D01*
X001477Y002327D01*
X001509Y002397D01*
X001546Y002465D01*
X001585Y002531D01*
X001628Y002595D01*
X001675Y002657D01*
X001724Y002716D01*
X001777Y002773D01*
X001832Y002827D01*
X001890Y002878D01*
X001951Y002926D01*
X002014Y002971D01*
X002079Y003012D01*
X002146Y003050D01*
X002215Y003085D01*
X002286Y003115D01*
X002358Y003143D01*
X002432Y003166D01*
X002506Y003186D01*
X002582Y003202D01*
X002658Y003214D01*
X002735Y003222D01*
X002812Y003226D01*
X002890Y003226D01*
X002967Y003222D01*
X003044Y003214D01*
X003120Y003202D01*
X003196Y003186D01*
X003270Y003166D01*
X003344Y003143D01*
X003416Y003115D01*
X003487Y003085D01*
X003556Y003050D01*
X003623Y003012D01*
X003688Y002971D01*
X003751Y002926D01*
X003812Y002878D01*
X003870Y002827D01*
X003925Y002773D01*
X003978Y002716D01*
X004027Y002657D01*
X004074Y002595D01*
X004117Y002531D01*
X004156Y002465D01*
X004193Y002397D01*
X004225Y002327D01*
X004255Y002255D01*
X004280Y002182D01*
X004302Y002108D01*
X004319Y002033D01*
X004333Y001957D01*
X004343Y001880D01*
X004349Y001803D01*
X004351Y001726D01*
X004349Y001649D01*
X004343Y001572D01*
X004333Y001495D01*
X004319Y001419D01*
X004302Y001344D01*
X004280Y001270D01*
X004255Y001197D01*
X004225Y001125D01*
X004193Y001055D01*
X004156Y000987D01*
X004117Y000921D01*
X004074Y000857D01*
X004027Y000795D01*
X003978Y000736D01*
X003925Y000679D01*
X003870Y000625D01*
X003812Y000574D01*
X003751Y000526D01*
X003688Y000481D01*
X003623Y000440D01*
X003556Y000402D01*
X003487Y000367D01*
X003416Y000337D01*
X003344Y000309D01*
X003270Y000286D01*
X003196Y000266D01*
X003120Y000250D01*
X003044Y000238D01*
X002967Y000230D01*
X002890Y000226D01*
X002812Y000226D01*
X002735Y000230D01*
X002658Y000238D01*
X002582Y000250D01*
X002506Y000266D01*
X002432Y000286D01*
X002358Y000309D01*
X002286Y000337D01*
X002215Y000367D01*
X002146Y000402D01*
X002079Y000440D01*
X002014Y000481D01*
X001951Y000526D01*
X001890Y000574D01*
X001832Y000625D01*
X001777Y000679D01*
X001724Y000736D01*
X001675Y000795D01*
X001628Y000857D01*
X001585Y000921D01*
X001546Y000987D01*
X001509Y001055D01*
X001477Y001125D01*
X001447Y001197D01*
X001422Y001270D01*
X001400Y001344D01*
X001383Y001419D01*
X001369Y001495D01*
X001359Y001572D01*
X001353Y001649D01*
X001351Y001726D01*
X004351Y001476D02*
X004351Y001976D01*
X004601Y002226D01*
X004351Y002476D01*
X004351Y002976D01*
X004601Y003226D01*
X005101Y003226D01*
X005351Y002976D01*
X005351Y002476D01*
X005101Y002226D01*
X005351Y001976D01*
X005351Y001476D01*
X005101Y001226D01*
X005351Y000976D01*
X005351Y000476D01*
X005101Y000226D01*
X004601Y000226D01*
X004351Y000476D01*
X004351Y000976D01*
X004601Y001226D01*
X004351Y001476D01*
M02*
